bozucu_refleks_KAPALI_x10_YAVAS4x
version=1
nRows=55
nColumns=15
inDegrees=yes
endheader
time	sacrum_pitch	sacrum_roll	sacrum_yaw	sacrum_x	sacrum_y	sacrum_z	sacroiliac_flx	hip_flx	hip_add	hip_int	knee_flx	ankle_flx	ankle_add	ankle_int
4.644000	22.370217	0.000000	0.000000	0.000000	0.672500	0.000000	3.700000	47.273923	-10.000000	0.000000	-80.804550	40.980501	-5.000000	0.000000
4.644800	22.370217	0.000000	0.000000	0.000000	0.672500	0.000000	3.700000	47.282065	-10.000000	0.000000	-80.805283	40.972911	-5.000000	0.000000
4.645600	22.370217	0.000000	0.000000	0.000000	0.672500	0.000000	3.700000	47.288153	-10.000000	0.000000	-80.810582	40.965320	-5.000000	0.000000
4.646400	22.370217	0.000000	0.000000	0.000000	0.672500	0.000000	3.700000	47.292378	-10.000000	0.000000	-80.821108	40.957730	-5.000000	0.000000
4.647200	22.370217	0.000000	0.000000	0.000000	0.672500	0.000000	3.700000	47.294927	-10.000000	0.000000	-80.837573	40.950139	-5.000000	0.000000
4.648000	22.370217	0.000000	0.000000	0.000000	0.672500	0.000000	3.700000	47.295976	-10.000000	0.000000	-80.860785	40.942549	-5.000000	0.000000
4.648800	22.370217	0.000000	0.000000	0.000000	0.672500	0.000000	3.700000	47.295692	-10.000000	0.000000	-80.891609	40.934959	-5.000000	0.000000
4.649600	22.370217	0.000000	0.000000	0.000000	0.672500	0.000000	3.700000	47.294233	-10.000000	0.000000	-80.930963	40.927368	-5.000000	0.000000
4.650400	22.370217	0.000000	0.000000	0.000000	0.672500	0.000000	3.700000	47.291742	-10.000000	0.000000	-80.979801	40.919778	-5.000000	0.000000
4.651200	22.370217	0.000000	0.000000	0.000000	0.672500	0.000000	3.700000	47.288347	-10.000000	0.000000	-81.039106	40.912386	-5.000000	0.000000
4.652000	22.370217	0.000000	0.000000	0.000000	0.672500	0.000000	3.700000	47.284036	-10.000000	0.000000	-81.109272	40.908633	-5.000000	0.000000
4.652800	22.370217	0.000000	0.000000	0.000000	0.672500	0.000000	3.700000	47.278688	-10.000000	0.000000	-81.190185	40.904965	-5.000000	0.000000
4.653600	22.370217	0.000000	0.000000	0.000000	0.672500	0.000000	3.700000	47.272173	-10.000000	0.000000	-81.281666	40.901735	-5.000000	0.000000
4.654400	22.370217	0.000000	0.000000	0.000000	0.672500	0.000000	3.700000	47.264359	-10.000000	0.000000	-81.383462	40.898506	-5.000000	0.000000
4.655200	22.370217	0.000000	0.000000	0.000000	0.672500	0.000000	3.700000	47.255122	-10.000000	0.000000	-81.495290	40.895277	-5.000000	0.000000
4.656000	22.370217	0.000000	0.000000	0.000000	0.672500	0.000000	3.700000	47.244339	-10.000000	0.000000	-81.616844	40.892047	-5.000000	0.000000
4.656800	22.370217	0.000000	0.000000	0.000000	0.672500	0.000000	3.700000	47.231896	-10.000000	0.000000	-81.747815	40.888818	-5.000000	0.000000
4.657600	22.370217	0.000000	0.000000	0.000000	0.672500	0.000000	3.700000	47.217680	-10.000000	0.000000	-81.887910	40.885588	-5.000000	0.000000
4.658400	22.370217	0.000000	0.000000	0.000000	0.672500	0.000000	3.700000	47.201583	-10.000000	0.000000	-82.036857	40.882359	-5.000000	0.000000
4.659200	22.370217	0.000000	0.000000	0.000000	0.672500	0.000000	3.700000	47.183497	-10.000000	0.000000	-82.194392	40.881042	-5.000000	0.000000
4.660000	22.370217	0.000000	0.000000	0.000000	0.672500	0.000000	3.700000	47.163305	-10.000000	0.000000	-82.360245	40.880981	-5.000000	0.000000
4.660800	22.370217	0.000000	0.000000	0.000000	0.672500	0.000000	3.700000	47.140896	-10.000000	0.000000	-82.534145	40.881635	-5.000000	0.000000
4.661600	22.370217	0.000000	0.000000	0.000000	0.672500	0.000000	3.700000	47.116168	-10.000000	0.000000	-82.715801	40.882575	-5.000000	0.000000
4.662400	22.370217	0.000000	0.000000	0.000000	0.672500	0.000000	3.700000	47.089033	-10.000000	0.000000	-82.904909	40.883515	-5.000000	0.000000
4.663200	22.370217	0.000000	0.000000	0.000000	0.672500	0.000000	3.700000	47.059414	-10.000000	0.000000	-83.101149	40.884455	-5.000000	0.000000
4.664000	22.370217	0.000000	0.000000	0.000000	0.672500	0.000000	3.700000	47.027244	-10.000000	0.000000	-83.304197	40.885395	-5.000000	0.000000
4.664800	22.370217	0.000000	0.000000	0.000000	0.672500	0.000000	3.700000	46.992460	-10.000000	0.000000	-83.513722	40.886335	-5.000000	0.000000
4.665600	22.370217	0.000000	0.000000	0.000000	0.672500	0.000000	3.700000	46.955004	-10.000000	0.000000	-83.729383	40.887275	-5.000000	0.000000
4.666400	22.370217	0.000000	0.000000	0.000000	0.672500	0.000000	3.700000	46.914819	-10.000000	0.000000	-83.950839	40.888610	-5.000000	0.000000
4.667200	22.370217	0.000000	0.000000	0.000000	0.672500	0.000000	3.700000	46.871879	-10.000000	0.000000	-84.177877	40.892090	-5.000000	0.000000
4.668000	22.370217	0.000000	0.000000	0.000000	0.672500	0.000000	3.700000	46.826179	-10.000000	0.000000	-84.410370	40.895949	-5.000000	0.000000
4.668800	22.370217	0.000000	0.000000	0.000000	0.672500	0.000000	3.700000	46.777729	-10.000000	0.000000	-84.648277	40.900858	-5.000000	0.000000
4.669600	22.370217	0.000000	0.000000	0.000000	0.672500	0.000000	3.700000	46.726548	-10.000000	0.000000	-84.891587	40.905767	-5.000000	0.000000
4.670400	22.370217	0.000000	0.000000	0.000000	0.672500	0.000000	3.700000	46.672652	-10.000000	0.000000	-85.140287	40.910675	-5.000000	0.000000
4.671200	22.370217	0.000000	0.000000	0.000000	0.672500	0.000000	3.700000	46.616057	-10.000000	0.000000	-85.394357	40.915584	-5.000000	0.000000
4.672000	22.370217	0.000000	0.000000	0.000000	0.672500	0.000000	3.700000	46.556776	-10.000000	0.000000	-85.653768	40.920493	-5.000000	0.000000
4.672800	22.370217	0.000000	0.000000	0.000000	0.672500	0.000000	3.700000	46.494818	-10.000000	0.000000	-85.918484	40.925401	-5.000000	0.000000
4.673600	22.370217	0.000000	0.000000	0.000000	0.672500	0.000000	3.700000	46.430193	-10.000000	0.000000	-86.188469	40.930310	-5.000000	0.000000
4.674400	22.370217	0.000000	0.000000	0.000000	0.672500	0.000000	3.700000	46.362902	-10.000000	0.000000	-86.463641	40.936602	-5.000000	0.000000
4.675200	22.370217	0.000000	0.000000	0.000000	0.672500	0.000000	3.700000	46.292926	-10.000000	0.000000	-86.743819	40.943466	-5.000000	0.000000
4.676000	22.370217	0.000000	0.000000	0.000000	0.672500	0.000000	3.700000	46.220239	-10.000000	0.000000	-87.028761	40.951806	-5.000000	0.000000
4.676800	22.370217	0.000000	0.000000	0.000000	0.672500	0.000000	3.700000	46.144800	-10.000000	0.000000	-87.318160	40.960475	-5.000000	0.000000
4.677600	22.370217	0.000000	0.000000	0.000000	0.672500	0.000000	3.700000	46.066567	-10.000000	0.000000	-87.611713	40.969144	-5.000000	0.000000
4.678400	22.370217	0.000000	0.000000	0.000000	0.672500	0.000000	3.700000	45.985501	-10.000000	0.000000	-87.909121	40.977814	-5.000000	0.000000
4.679200	22.370217	0.000000	0.000000	0.000000	0.672500	0.000000	3.700000	45.901563	-10.000000	0.000000	-88.210085	40.986483	-5.000000	0.000000
4.680000	22.370217	0.000000	0.000000	0.000000	0.672500	0.000000	3.700000	45.814715	-10.000000	0.000000	-88.514306	40.995152	-5.000000	0.000000
4.680800	22.370217	0.000000	0.000000	0.000000	0.672500	0.000000	3.700000	45.724922	-10.000000	0.000000	-88.821491	41.003822	-5.000000	0.000000
4.681600	22.370217	0.000000	0.000000	0.000000	0.672500	0.000000	3.700000	45.632150	-10.000000	0.000000	-89.131353	41.012858	-5.000000	0.000000
4.682400	22.370217	0.000000	0.000000	0.000000	0.672500	0.000000	3.700000	45.536387	-10.000000	0.000000	-89.443698	41.022946	-5.000000	0.000000
4.683200	22.370217	0.000000	0.000000	0.000000	0.672500	0.000000	3.700000	45.437632	-10.000000	0.000000	-89.758392	41.033819	-5.000000	0.000000
4.684000	22.370217	0.000000	0.000000	0.000000	0.672500	0.000000	3.700000	45.335916	-10.000000	0.000000	-90.075447	41.046035	-5.000000	0.000000
4.684800	22.370217	0.000000	0.000000	0.000000	0.672500	0.000000	3.700000	45.231278	-10.000000	0.000000	-90.394921	41.058251	-5.000000	0.000000
4.685600	22.370217	0.000000	0.000000	0.000000	0.672500	0.000000	3.700000	45.123756	-10.000000	0.000000	-90.716870	41.070467	-5.000000	0.000000
4.686400	22.370217	0.000000	0.000000	0.000000	0.672500	0.000000	3.700000	45.013390	-10.000000	0.000000	-91.041350	41.082682	-5.000000	0.000000
4.687200	22.370217	0.000000	0.000000	0.000000	0.672500	0.000000	3.700000	44.900220	-10.000000	0.000000	-91.368416	41.094898	-5.000000	0.000000
